<svg id="Layer_1" data-name="Layer 1" xmlns="http://www.w3.org/2000/svg" viewBox="0 0 201.51 227.35"><defs><style>.cls-1{fill:none;}.cls-1,.cls-2,.cls-3{fill-rule:evenodd;}.cls-3{fill:#fff;}</style></defs><path class="cls-1" d="M24.64,219.33H134.69a58.49,58.49,0,0,0,37.72-13.78A78,78,0,0,0,24.64,219.33Z"/><path class="cls-1" d="M100.75,219.33l34.62-.51a58,58,0,0,0,58.12-58.28V49.63c-14.05,0-28.89-.34-43.14.46L137,51.24c-13,1.59-26.25,4.63-36.26,10.41Z"/><path class="cls-1" d="M100.75,219.33H134.9a57.91,57.91,0,0,0,37.51-13.78c-11.81-27.43-40-46.73-71.66-47.16Z"/><path class="cls-2" d="M193.49,41.61c-14.49,0-29-.76-43.45.46a49.86,49.86,0,0,0-98.45-.3C37,40.66,22.56,41.61,8,41.61H0V227.35H134.69a67,67,0,0,0,66.82-66.81V41.61ZM100.91,13.37a36.32,36.32,0,0,1,35.73,29.86l-.32,0c-11.87,1-24.83,3.94-35.52,9.28a93.06,93.06,0,0,0-35.62-9.75H65A36.63,36.63,0,0,1,100.91,13.37Zm92.58,147.17a59,59,0,0,1-58.8,58.79H8V49.63c13.77,0,28.68-.54,43.22.14l13.33,1C78.18,52.3,90,55.41,100.75,61.65c10-5.78,23.21-8.82,36.26-10.41l13.34-1.15c14.25-.8,29.09-.46,43.14-.46Z"/><path class="cls-2" d="M123.25,159.22c-4.66-8-13.37-12.36-22.5-12.36s-17.84,4.33-22.5,12.36L76.06,163l3,3.19,17.41,18.45,4.27,4.52,4.27-4.52,17.42-18.45,3-3.19Zm-22.5,21.39q-8.7-9.23-17.42-18.44c3.67-6.32,10.55-9.44,17.42-9.43s13.75,3.11,17.41,9.43Q109.48,171.4,100.75,180.61Z"/><path class="cls-1" d="M118.16,162.17q-8.68,9.22-17.41,18.44V152.74C107.62,152.73,114.5,155.85,118.16,162.17Z"/><path class="cls-2" d="M57.23,72.76a47.12,47.12,0,1,1-47.11,47.11A47.13,47.13,0,0,1,57.23,72.76Z"/><path class="cls-3" d="M57.23,80.78a39.1,39.1,0,1,1-39.1,39.09A39.1,39.1,0,0,1,57.23,80.78Z"/><path class="cls-3" d="M57.23,80.78A39.13,39.13,0,0,1,94.8,109a39.11,39.11,0,0,1-75.13,0A39.11,39.11,0,0,1,57.23,80.78Z"/><path class="cls-2" d="M144.27,72.76a47.12,47.12,0,1,1-47.11,47.11A47.12,47.12,0,0,1,144.27,72.76Z"/><path class="cls-3" d="M144.27,80.78a39.1,39.1,0,1,1-39.09,39.09A39.11,39.11,0,0,1,144.27,80.78Z"/><path class="cls-3" d="M144.27,80.78A39.11,39.11,0,0,1,181.83,109a39.11,39.11,0,0,1-75.13,0A39.13,39.13,0,0,1,144.27,80.78Z"/><path class="cls-2" d="M62.15,95.56a25.25,25.25,0,1,1-21.8,12.49A12.16,12.16,0,1,0,60.87,95.59C61.29,95.56,61.72,95.56,62.15,95.56Z"/><path class="cls-2" d="M139.35,95.56a25.2,25.2,0,1,1-21.8,12.49,12.17,12.17,0,1,0,20.54-12.46C138.51,95.56,138.93,95.56,139.35,95.56Z"/></svg>